<?xml version="1.0" standalone="no"?>
<!DOCTYPE svg PUBLIC "-//W3C//DTD SVG 20010904//EN"
 "http://www.w3.org/TR/2001/REC-SVG-20010904/DTD/svg10.dtd">
<svg version="1.0" xmlns="http://www.w3.org/2000/svg"
 width="896.000000pt" height="896.000000pt" viewBox="0 0 896.000000 896.000000"
 preserveAspectRatio="xMidYMid meet">
<metadata>
Created by potrace 1.11, written by Peter Selinger 2001-2013
</metadata>
<g transform="translate(0.000000,896.000000) scale(0.100000,-0.100000)"
fill="#000000" stroke="none">
<path d="M2619 8933 c-35 -19 -64 -43 -84 -71 l-30 -44 0 -411 0 -412 -847 -3
-848 -2 0 -3783 c0 -4170 -5 -3833 61 -3958 38 -70 126 -157 197 -193 119 -60
-133 -56 3417 -56 3550 0 3298 -4 3417 56 71 36 159 123 197 193 66 125 61
-212 61 3958 l0 3783 -764 0 -763 0 -7 393 c-7 389 -7 392 -32 444 -67 140
-238 175 -350 71 -73 -67 -74 -78 -67 -523 l6 -385 -1611 0 c-887 0 -1613 1
-1613 3 -1 1 -5 178 -8 392 -6 343 -9 395 -24 430 -25 55 -63 93 -122 121 -66
32 -118 31 -186 -3z m3381 -1563 l0 -50 -40 0 -40 0 0 50 0 50 40 0 40 0 0
-50z m-2812 -37 l3 -33 -290 0 -291 0 0 -220 0 -220 258 -2 257 -3 3 -32 3
-33 -260 0 -261 0 0 -295 0 -295 -40 0 -40 0 0 585 0 585 328 -2 327 -3 3 -32z
m2112 -133 l0 -120 168 -2 167 -3 0 -30 0 -30 -167 -3 -168 -2 0 -258 c0 -141
4 -285 9 -319 18 -121 77 -164 234 -171 l98 -4 -3 -27 c-3 -25 -5 -26 -86 -29
-154 -5 -256 41 -300 136 l-27 57 -3 308 -4 307 -54 0 -54 0 0 35 0 35 55 0
55 0 0 120 0 120 40 0 40 0 0 -120z m-1480 -111 c134 -21 233 -89 272 -187 21
-54 23 -72 26 -379 l3 -323 -40 0 -41 0 0 113 -1 112 -31 -58 c-72 -133 -190
-195 -353 -185 -181 12 -277 102 -279 263 -1 135 72 231 212 276 57 19 97 23
260 27 l192 4 0 27 c0 16 -6 49 -14 75 -34 112 -119 167 -270 174 -122 6 -196
-12 -338 -86 -5 -2 -8 12 -8 32 0 42 16 55 109 86 110 37 201 45 301 29z
m1048 -20 c60 -20 62 -22 62 -55 0 -40 -4 -41 -67 -12 -42 20 -65 22 -188 23
-123 0 -146 -3 -187 -22 -81 -37 -119 -134 -82 -210 26 -52 92 -85 237 -118
139 -31 190 -49 249 -91 53 -37 78 -85 78 -149 0 -114 -58 -195 -165 -230 -49
-17 -86 -20 -210 -19 -131 1 -159 4 -220 25 -63 21 -70 27 -73 52 -7 56 2 59
72 27 131 -60 312 -65 415 -13 44 22 61 38 79 73 26 52 28 109 6 151 -21 42
-111 82 -254 114 -179 41 -256 83 -291 159 -54 118 14 249 152 294 35 12 80
23 99 26 71 9 225 -4 288 -25z m2040 3 c57 -18 57 -18 60 -60 l3 -41 -58 27
c-54 25 -67 27 -193 27 -124 0 -139 -2 -185 -25 -66 -33 -95 -77 -95 -146 0
-96 57 -137 256 -180 147 -32 227 -68 276 -122 81 -89 53 -245 -56 -316 -64
-42 -110 -50 -266 -51 -125 0 -156 3 -222 24 l-78 24 0 43 c0 24 2 44 4 44 2
0 32 -13 66 -29 116 -55 306 -66 403 -23 81 36 128 123 107 200 -17 67 -78
104 -221 137 -157 36 -233 63 -277 101 -55 47 -72 81 -72 146 1 125 87 210
241 237 73 13 237 4 307 -17z m-908 -432 l0 -440 -40 0 -40 0 0 440 0 440 40
0 40 0 0 -440z m1998 -3727 l-3 -2518 -24 -50 c-32 -63 -92 -124 -156 -155
l-50 -25 -3280 0 -3280 0 -50 24 c-63 32 -124 93 -156 156 l-24 50 -3 2518 -2
2517 3515 0 3515 0 -2 -2517z"/>
<path d="M3640 6674 c-120 -31 -180 -106 -180 -221 0 -35 6 -78 14 -96 60
-144 347 -154 456 -17 60 76 110 217 110 310 l0 40 -172 -1 c-118 0 -191 -5
-228 -15z"/>
</g>
</svg>
