<svg id="Layer_1" data-name="Layer 1" xmlns="http://www.w3.org/2000/svg" viewBox="0 0 46 56.06"><title>logo_fastis2</title><rect x="0.5" y="6.56" width="45" height="49" rx="2.5" style="fill:#fff"/><path d="M76,30a2,2,0,0,1,2,2V76a2,2,0,0,1-2,2H36a2,2,0,0,1-2-2V32a2,2,0,0,1,2-2H76m0-1H36a3,3,0,0,0-3,3V76a3,3,0,0,0,3,3H76a3,3,0,0,0,3-3V32a3,3,0,0,0-3-3Z" transform="translate(-33 -22.94)" style="fill:#0c1285"/><rect y="6.06" width="46" height="16" style="fill:#0c1285"/><rect x="14" y="35.06" width="7" height="7" style="fill:#858bf7"/><rect x="14" y="25.06" width="7" height="7" style="fill:#81cabf"/><rect x="24" y="25.06" width="7" height="7" style="fill:#858bf7"/><rect x="34" y="25.06" width="7" height="7" style="fill:#858bf7"/><rect x="34" y="35.06" width="7" height="7" style="fill:#858bf7"/><rect x="24" y="35.06" width="7" height="7" style="fill:#2ac6d8"/><rect x="4" y="35.06" width="7" height="7" style="fill:#858bf7"/><rect x="34" y="45.06" width="7" height="7" style="fill:#858bf7"/><rect x="14" y="45.06" width="7" height="7" style="fill:#858bf7"/><rect x="4" y="45.06" width="7" height="7" style="fill:#ff6969"/><rect x="24" y="45.06" width="7" height="7" style="fill:#858bf7"/><text transform="translate(9.37 17.26) scale(1.12 1)" style="font-size:10px;fill:#fff;font-family:IBMPlexSans-Light, IBM Plex Sans;font-weight:300"><tspan style="letter-spacing:-0.035982000861300156em">F</tspan><tspan x="5.14" y="0">a</tspan><tspan x="10.41" y="0" style="letter-spacing:-0.0040365815200252295em">s</tspan><tspan x="15.14" y="0">tis</tspan></text><path d="M45.06,31.06h0a1.49,1.49,0,0,1-1.43-1.5l-.07-5.16a1.38,1.38,0,0,1,1.38-1.46h0a1.49,1.49,0,0,1,1.43,1.5l.07,5.16A1.38,1.38,0,0,1,45.06,31.06Z" transform="translate(-33 -22.94)" style="fill:#0c1285"/><path d="M68.06,31.06h0a1.49,1.49,0,0,1-1.43-1.5l-.07-5.16a1.38,1.38,0,0,1,1.38-1.46h0a1.49,1.49,0,0,1,1.43,1.5l.07,5.16A1.38,1.38,0,0,1,68.06,31.06Z" transform="translate(-33 -22.94)" style="fill:#0c1285"/><text x="-33" y="-22.94"/></svg>