<svg id="Layer_1" data-name="Layer 1" xmlns="http://www.w3.org/2000/svg" viewBox="0 0 76 76"><defs><style>.cls-1{fill:#858bf7;}.cls-2,.cls-7{fill:#fff;}.cls-3{fill:#0c1285;}.cls-4{fill:#81cabf;}.cls-5{fill:#2ac6d8;}.cls-6{fill:#ff6969;}.cls-7{font-size:12px;font-family:Exo2-Regular, "Exo 2";}.cls-8{letter-spacing:-0.02em;}</style></defs><title>logo_fastis</title><circle class="cls-1" cx="38" cy="38" r="38"/><rect class="cls-2" x="15.5" y="14.5" width="45" height="49" rx="2.5"/><path class="cls-3" d="M76,30a2,2,0,0,1,2,2V76a2,2,0,0,1-2,2H36a2,2,0,0,1-2-2V32a2,2,0,0,1,2-2H76m0-1H36a3,3,0,0,0-3,3V76a3,3,0,0,0,3,3H76a3,3,0,0,0,3-3V32a3,3,0,0,0-3-3Z" transform="translate(-18 -15)"/><rect class="cls-3" x="15" y="14" width="46" height="16"/><rect class="cls-1" x="18" y="40" width="4" height="4"/><rect class="cls-1" x="18" y="47" width="4" height="4"/><rect class="cls-1" x="24" y="33" width="4" height="4"/><rect class="cls-4" x="30" y="33" width="4" height="4"/><rect class="cls-1" x="36" y="33" width="4" height="4"/><rect class="cls-1" x="42" y="33" width="4" height="4"/><rect class="cls-1" x="48" y="33" width="4" height="4"/><rect class="cls-1" x="54" y="33" width="4" height="4"/><rect class="cls-1" x="36" y="40" width="4" height="4"/><rect class="cls-1" x="42" y="40" width="4" height="4"/><rect class="cls-5" x="48" y="40" width="4" height="4"/><rect class="cls-1" x="54" y="40" width="4" height="4"/><rect class="cls-1" x="24" y="47" width="4" height="4"/><rect class="cls-1" x="30" y="47" width="4" height="4"/><rect class="cls-1" x="36" y="47" width="4" height="4"/><rect class="cls-1" x="42" y="47" width="4" height="4"/><rect class="cls-1" x="48" y="47" width="4" height="4"/><rect class="cls-1" x="54" y="47" width="4" height="4"/><rect class="cls-1" x="24" y="40" width="4" height="4"/><rect class="cls-1" x="30" y="40" width="4" height="4"/><rect class="cls-1" x="18" y="54" width="4" height="4"/><rect class="cls-1" x="36" y="54" width="4" height="4"/><rect class="cls-1" x="42" y="54" width="4" height="4"/><rect class="cls-1" x="48" y="54" width="4" height="4"/><rect class="cls-1" x="54" y="54" width="4" height="4"/><rect class="cls-6" x="24" y="54" width="4" height="4"/><rect class="cls-1" x="30" y="54" width="4" height="4"/><text class="cls-7" transform="translate(21.6 26.2)"><tspan class="cls-8">F</tspan><tspan x="6.19" y="0">astis</tspan></text><path class="cls-3" d="M45.06,31.06h0a1.49,1.49,0,0,1-1.43-1.5l-.07-5.16a1.38,1.38,0,0,1,1.38-1.46h0a1.49,1.49,0,0,1,1.43,1.5l.07,5.16A1.38,1.38,0,0,1,45.06,31.06Z" transform="translate(-18 -15)"/><path class="cls-3" d="M68.06,31.06h0a1.49,1.49,0,0,1-1.43-1.5l-.07-5.16a1.38,1.38,0,0,1,1.38-1.46h0a1.49,1.49,0,0,1,1.43,1.5l.07,5.16A1.38,1.38,0,0,1,68.06,31.06Z" transform="translate(-18 -15)"/></svg>